<?xml version="1.0" standalone="no"?><!DOCTYPE svg PUBLIC "-//W3C//DTD SVG 1.1//EN" "http://www.w3.org/Graphics/SVG/1.1/DTD/svg11.dtd"><svg t="1620918965167" class="icon" viewBox="0 0 1024 1024" version="1.1" xmlns="http://www.w3.org/2000/svg" p-id="25842" xmlns:xlink="http://www.w3.org/1999/xlink" width="200" height="200"><defs><style type="text/css"></style></defs><path d="M780.344121 435.790767c0-177.770997-153.645297-317.954427-342.459721-317.954428-188.783118 0-342.426458 140.181473-342.426458 317.954428 0 66.066852 21.294404 129.040213 60.290772 182.122624L132.720703 741.28514c-1.911663 10.399684 7.910804 18.844657 16.968214 14.496944l103.760079-49.358875c54.587088 32.838737 118.174843 50.491784 184.433447 50.491785 188.814424 0 342.461678-143.351273 342.461678-321.124227z" fill="#247afe" p-id="25843"></path><path d="M868.552613 772.131991c38.802658-52.835871 59.989445-115.515733 59.989445-181.273431 0-86.298785-36.376391-163.68691-95.424679-220.338282a365.172708 365.172708 0 0 1 5.59998 63.785379c0 102.773919-42.432274 199.112361-119.477983 271.270316-75.842358 71.032872-176.375894 110.148596-283.069016 110.148596a424.880393 424.880393 0 0 1-103.214169-12.698767c62.470498 65.965105 153.5729 107.458179 254.867579 107.458179 65.927928 0 129.196746-17.56891 183.509901-50.258941l103.245476 49.133857c9.012407 4.32032 18.785957-4.08552 16.884077-14.43433l-22.910611-122.792576z" fill="#247afe" p-id="25844"></path></svg>