<?xml version="1.0" standalone="no"?><!DOCTYPE svg PUBLIC "-//W3C//DTD SVG 1.1//EN" "http://www.w3.org/Graphics/SVG/1.1/DTD/svg11.dtd"><svg t="1620914505566" class="icon" viewBox="0 0 1024 1024" version="1.1" xmlns="http://www.w3.org/2000/svg" p-id="21161" xmlns:xlink="http://www.w3.org/1999/xlink" width="200" height="200"><defs><style type="text/css"></style></defs><path d="M854.016 860.672H205.824c-44.032 0-79.872-35.84-79.872-79.872v-471.04c0-44.032 35.84-79.872 79.872-79.872h648.192c44.032 0 79.872 35.84 79.872 79.872v471.04c0 44.032-35.84 79.872-79.872 79.872zM205.824 269.824c-22.016 0-40.448 17.92-40.448 40.448v471.04c0 22.016 17.92 40.448 40.448 40.448h648.192c22.016 0 40.448-17.92 40.448-40.448v-471.04c0-22.016-17.92-40.448-40.448-40.448H205.824z" fill="#666666" p-id="21162"></path><path d="M795.648 860.672c-5.632 0-10.752-2.56-14.848-6.656L419.328 435.2 158.72 658.944c-8.192 7.168-20.48 6.144-27.648-2.048-7.168-8.192-6.144-20.48 2.048-27.648l275.456-236.544c8.192-7.168 20.48-6.144 27.648 2.048l374.272 433.152c7.168 8.192 6.144 20.48-2.048 27.648-3.584 3.584-8.192 5.12-12.8 5.12z" fill="#666666" p-id="21163"></path><path d="M913.92 702.976c-5.12 0-10.752-2.048-14.336-6.144l-203.776-222.208-123.392 105.984c-8.192 7.168-20.48 6.144-27.648-2.048-7.168-8.192-6.144-20.48 2.048-27.648l137.728-118.272c8.192-6.656 19.968-6.144 27.136 1.536l216.576 236.544c7.168 8.192 6.656 20.48-1.024 27.648-3.584 3.072-8.704 4.608-13.312 4.608z" fill="#666666" p-id="21164"></path></svg>