<?xml version="1.0" standalone="no"?><!DOCTYPE svg PUBLIC "-//W3C//DTD SVG 1.1//EN" "http://www.w3.org/Graphics/SVG/1.1/DTD/svg11.dtd"><svg t="1620914495848" class="icon" viewBox="0 0 1024 1024" version="1.1" xmlns="http://www.w3.org/2000/svg" p-id="20720" xmlns:xlink="http://www.w3.org/1999/xlink" width="200" height="200"><defs><style type="text/css"></style></defs><path d="M341.624 671.058l543.053-543.053 11.313 11.313-543.053 543.053z" p-id="20721"></path><path d="M671.057 682.374L128.004 139.321l11.313-11.313L682.37 671.06zM256 640c-70.692 0-128 57.308-128 128s57.308 128 128 128 128-57.308 128-128-57.308-128-128-128z m0 240c-61.856 0-112-50.145-112-112s50.144-112 112-112 112 50.145 112 112-50.144 112-112 112z" p-id="20722"></path><path d="M768 640c-70.692 0-128 57.308-128 128s57.308 128 128 128 128-57.308 128-128-57.308-128-128-128z m0 240c-61.855 0-112-50.145-112-112s50.145-112 112-112 112 50.145 112 112-50.145 112-112 112z" p-id="20723"></path></svg>