<?xml version="1.0" standalone="no"?><!DOCTYPE svg PUBLIC "-//W3C//DTD SVG 1.1//EN" "http://www.w3.org/Graphics/SVG/1.1/DTD/svg11.dtd"><svg t="1620914499342" class="icon" viewBox="0 0 1024 1024" version="1.1" xmlns="http://www.w3.org/2000/svg" p-id="20868" xmlns:xlink="http://www.w3.org/1999/xlink" width="200" height="200"><defs><style type="text/css"></style></defs><path d="M627.715153 711.882006H230.31051c-42.71569 0-77.468665-30.651839-77.468665-68.328136V380.44613c0-37.676297 34.752975-68.328136 77.468665-68.328136h397.404643c42.716938 0 77.469912 30.651839 77.469912 68.328136v263.106493c-0.001248 37.676297-34.752975 68.329384-77.469912 68.329383zM230.31051 337.071663c-28.956237 0-52.514996 19.457623-52.514996 43.374467v263.106493c0 23.916844 23.557511 43.374467 52.514996 43.374467h397.404643c28.957485 0 52.516244-19.457623 52.516244-43.374467V380.44613c0-23.916844-23.558759-43.374467-52.516244-43.374467H230.31051z" fill="" p-id="20869"></path><path d="M866.51802 650.432349a12.464358 12.464358 0 0 1-7.58342-2.56898L694.320238 521.908478a12.475587 12.475587 0 0 1 0-19.816956l164.614362-125.954891a12.47933 12.47933 0 0 1 20.059007 9.909102v251.909782a12.476834 12.476834 0 0 1-12.475587 12.476834zM722.435537 511.999376l131.604401 100.698035V411.302589L722.435537 511.999376z" fill="" p-id="20870"></path></svg>